Gait_medial_08_analogdata.mot
version=1
nRows=49
nColumns=19
inDegrees=yes
endheader
time	1_ground_force_vx	1_ground_force_vy	1_ground_force_vz	1_ground_force_px	1_ground_force_py	1_ground_force_pz	1_ground_torque_x	1_ground_torque_y	1_ground_torque_z	2_ground_force_vx	2_ground_force_vy	2_ground_force_vz	2_ground_force_px	2_ground_force_py	2_ground_force_pz	2_ground_torque_x	2_ground_torque_y	2_ground_torque_z
0.690000	-25.004078	658.386963	47.387386	-0.162257	0.000000	-0.205564	0.125802	-3.312520	-0.238419	0.000000	0.000000	-0.000000	-0.200000	0.000000	0.302000	0.000000	0.000000	-0.000000
0.691000	-24.558649	665.735352	48.802895	-0.163175	0.000000	-0.204481	0.117626	-3.188615	-0.233747	0.000000	0.000000	-0.000000	-0.200000	0.000000	0.302000	0.000000	0.000000	-0.000000
0.692000	-24.736820	660.486511	48.714424	-0.162807	0.000000	-0.203919	0.125409	-3.348477	-0.246968	0.000000	0.000000	-0.000000	-0.200000	0.000000	0.302000	0.000000	0.000000	-0.000000
0.693000	-25.093164	661.886169	49.245239	-0.162539	0.000000	-0.204045	0.130893	-3.452573	-0.256876	0.000000	0.000000	-0.000000	-0.200000	0.000000	0.302000	0.000000	0.000000	-0.000000
0.694000	-24.202307	658.386963	50.572281	-0.161559	0.000000	-0.203379	0.141610	-3.852275	-0.295902	0.000000	0.000000	-0.000000	-0.200000	0.000000	0.302000	0.000000	0.000000	-0.000000
0.695000	-23.756878	656.987305	51.368504	-0.162736	0.000000	-0.203756	0.126050	-3.485855	-0.272552	0.000000	0.000000	-0.000000	-0.200000	0.000000	0.302000	0.000000	0.000000	-0.000000
0.696000	-23.044192	669.584473	52.518601	-0.163323	0.000000	-0.204408	0.121146	-3.520086	-0.276097	0.000000	0.000000	-0.000000	-0.200000	0.000000	0.302000	0.000000	0.000000	-0.000000
0.697000	-23.578705	663.635803	51.810848	-0.162949	0.000000	-0.203411	0.122650	-3.452058	-0.269506	0.000000	0.000000	-0.000000	-0.200000	0.000000	0.302000	0.000000	0.000000	-0.000000
0.698000	-24.024134	662.935974	53.137886	-0.162791	0.000000	-0.203212	0.140911	-3.888376	-0.311674	0.000000	0.000000	-0.000000	-0.200000	0.000000	0.302000	0.000000	0.000000	-0.000000
0.699000	-22.598761	662.236145	53.934109	-0.161940	0.000000	-0.203548	0.126156	-3.696898	-0.301084	0.000000	0.000000	-0.000000	-0.200000	0.000000	0.302000	0.000000	0.000000	-0.000000
0.700000	-25.004079	659.086792	55.172680	-0.163014	0.000000	-0.201486	0.125702	-3.313394	-0.277367	0.000000	0.000000	-0.000000	-0.200000	0.000000	0.302000	0.000000	0.000000	-0.000000
0.701000	-22.776934	663.985718	54.641865	-0.163366	0.000000	-0.202699	0.124109	-3.617989	-0.297738	0.000000	0.000000	-0.000000	-0.200000	0.000000	0.302000	0.000000	0.000000	-0.000000
0.702000	-23.400535	661.886169	55.791962	-0.162798	0.000000	-0.202663	0.127748	-3.613363	-0.304579	0.000000	0.000000	-0.000000	-0.200000	0.000000	0.302000	0.000000	0.000000	-0.000000
0.703000	-23.222364	663.285889	57.030533	-0.163053	0.000000	-0.202925	0.136032	-3.885400	-0.334074	0.000000	0.000000	-0.000000	-0.200000	0.000000	0.302000	0.000000	0.000000	-0.000000
0.704000	-22.598762	658.736877	56.676655	-0.162729	0.000000	-0.202624	0.122140	-3.560283	-0.306321	0.000000	0.000000	-0.000000	-0.200000	0.000000	0.302000	0.000000	0.000000	-0.000000
0.705000	-23.400535	660.836426	58.092163	-0.163467	0.000000	-0.200922	0.120225	-3.395182	-0.298460	0.000000	0.000000	-0.000000	-0.200000	0.000000	0.302000	0.000000	0.000000	-0.000000
0.706000	-23.044193	663.285889	58.534508	-0.163512	0.000000	-0.202593	0.126541	-3.642262	-0.321427	0.000000	0.000000	-0.000000	-0.200000	0.000000	0.302000	0.000000	0.000000	-0.000000
0.707000	-23.311449	662.236145	59.419201	-0.163450	0.000000	-0.202576	0.127329	-3.617192	-0.324553	0.000000	0.000000	-0.000000	-0.200000	0.000000	0.302000	0.000000	0.000000	-0.000000
0.708000	-22.420591	660.836426	60.746239	-0.162822	0.000000	-0.202431	0.132756	-3.912913	-0.359688	0.000000	0.000000	-0.000000	-0.200000	0.000000	0.302000	0.000000	0.000000	-0.000000
0.709000	-22.064249	659.786682	59.596142	-0.164702	0.000000	-0.202087	0.119450	-3.571919	-0.322638	0.000000	0.000000	-0.000000	-0.200000	0.000000	0.302000	0.000000	0.000000	-0.000000
0.710000	-23.311449	661.886169	61.542465	-0.163596	0.000000	-0.201699	0.122945	-3.490790	-0.324575	0.000000	0.000000	-0.000000	-0.200000	0.000000	0.302000	0.000000	0.000000	-0.000000
0.711000	-22.331507	662.236145	61.277054	-0.163498	0.000000	-0.202033	0.120076	-3.560834	-0.329486	0.000000	0.000000	-0.000000	-0.200000	0.000000	0.302000	0.000000	0.000000	-0.000000
0.712000	-22.598762	658.736877	62.338688	-0.162877	0.000000	-0.201639	0.128551	-3.747176	-0.354609	0.000000	0.000000	-0.000000	-0.200000	0.000000	0.302000	0.000000	0.000000	-0.000000
0.713000	-22.598763	665.735352	63.400319	-0.163160	0.000000	-0.202470	0.125840	-3.707126	-0.353043	0.000000	0.000000	-0.000000	-0.200000	0.000000	0.302000	0.000000	0.000000	-0.000000
0.714000	-21.707905	660.836426	62.781033	-0.164427	0.000000	-0.201889	0.123897	-3.771703	-0.358321	0.000000	0.000000	-0.000000	-0.200000	0.000000	0.302000	0.000000	0.000000	-0.000000
0.715000	-19.658932	660.486511	64.815823	-0.163234	0.000000	-0.201369	0.111261	-3.738058	-0.366829	0.000000	0.000000	-0.000000	-0.200000	0.000000	0.302000	0.000000	0.000000	-0.000000
0.716000	-21.975163	661.886169	64.992764	-0.163426	0.000000	-0.201630	0.123112	-3.708097	-0.364110	0.000000	0.000000	-0.000000	-0.200000	0.000000	0.302000	0.000000	0.000000	-0.000000
0.717000	-22.687849	660.136597	64.992764	-0.163101	0.000000	-0.201291	0.128537	-3.739962	-0.368212	0.000000	0.000000	-0.000000	-0.200000	0.000000	0.302000	0.000000	0.000000	-0.000000
0.718000	-21.618821	663.285889	66.054394	-0.163169	0.000000	-0.201652	0.108023	-3.314262	-0.330056	0.000000	0.000000	-0.000000	-0.200000	0.000000	0.302000	0.000000	0.000000	-0.000000
0.719000	-21.707905	659.086792	66.939084	-0.163459	0.000000	-0.201139	0.125295	-3.804162	-0.386364	0.000000	0.000000	-0.000000	-0.200000	0.000000	0.302000	0.000000	0.000000	-0.000000
0.720000	-20.995219	661.186340	67.558369	-0.163459	0.000000	-0.201251	0.121204	-3.816981	-0.390010	0.000000	0.000000	-0.000000	-0.200000	0.000000	0.302000	0.000000	0.000000	-0.000000
0.721000	-21.618821	662.236145	67.646840	-0.163016	0.000000	-0.201678	0.125473	-3.843532	-0.392613	0.000000	0.000000	-0.000000	-0.200000	0.000000	0.302000	0.000000	0.000000	-0.000000
0.722000	-23.044194	657.687134	68.531536	-0.163312	0.000000	-0.199661	0.132931	-3.793877	-0.395325	0.000000	0.000000	-0.000000	-0.200000	0.000000	0.302000	0.000000	0.000000	-0.000000
0.723000	-22.331508	663.635803	69.327755	-0.163674	0.000000	-0.201686	0.120142	-3.570320	-0.372979	0.000000	0.000000	-0.000000	-0.200000	0.000000	0.302000	0.000000	0.000000	-0.000000
0.724000	-21.173393	658.037048	73.131932	-0.163481	0.000000	-0.200574	0.117693	-3.657734	-0.406508	0.000000	0.000000	-0.000000	-0.200000	0.000000	0.302000	0.000000	0.000000	-0.000000
0.725000	-22.331508	659.786682	71.185612	-0.163098	0.000000	-0.200203	0.123636	-3.652830	-0.394111	0.000000	0.000000	-0.000000	-0.200000	0.000000	0.302000	0.000000	0.000000	-0.000000
0.726000	-22.064250	656.987305	70.831730	-0.164282	0.000000	-0.200741	0.132872	-3.956421	-0.426553	0.000000	0.000000	-0.000000	-0.200000	0.000000	0.302000	0.000000	0.000000	-0.000000
0.727000	-22.598764	656.287415	70.831730	-0.163880	0.000000	-0.199800	0.130765	-3.797541	-0.409861	0.000000	0.000000	-0.000000	-0.200000	0.000000	0.302000	0.000000	0.000000	-0.000000
0.728000	-22.153335	648.589111	73.839688	-0.163220	0.000000	-0.199045	0.124013	-3.630761	-0.413350	0.000000	0.000000	-0.000000	-0.200000	0.000000	0.302000	0.000000	0.000000	-0.000000
0.729000	-20.460706	655.587585	73.220402	-0.163727	0.000000	-0.200121	0.125284	-4.014259	-0.448339	0.000000	0.000000	-0.000000	-0.200000	0.000000	0.302000	0.000000	0.000000	-0.000000
0.730000	-22.331508	654.887756	73.220402	-0.163448	0.000000	-0.199799	0.128935	-3.781119	-0.422752	0.000000	0.000000	-0.000000	-0.200000	0.000000	0.302000	0.000000	0.000000	-0.000000
0.731000	-22.331508	657.337219	73.220402	-0.164514	0.000000	-0.200237	0.132073	-3.887617	-0.433039	0.000000	0.000000	-0.000000	-0.200000	0.000000	0.302000	0.000000	0.000000	-0.000000
0.732000	-22.955109	651.038574	74.370503	-0.163475	0.000000	-0.198505	0.126683	-3.592892	-0.410429	0.000000	0.000000	-0.000000	-0.200000	0.000000	0.302000	0.000000	0.000000	-0.000000
0.733000	-21.084307	641.940613	76.051419	-0.163435	0.000000	-0.198149	0.120039	-3.654766	-0.432984	0.000000	0.000000	-0.000000	-0.200000	0.000000	0.302000	0.000000	0.000000	-0.000000
0.734000	-21.618822	650.688660	75.255192	-0.163941	0.000000	-0.198794	0.132243	-3.980297	-0.460340	-2.502093	0.000000	-0.262616	-0.319244	0.000000	0.213314	0.007758	-0.061743	0.000814
0.735000	-21.796993	652.088379	75.874478	-0.164014	0.000000	-0.199660	0.122525	-3.665507	-0.426504	4.800163	29.049250	5.669733	-0.294513	0.000000	0.226274	0.036403	0.220303	0.042998
0.736000	-22.598765	649.988831	76.139889	-0.164884	0.000000	-0.199251	0.131491	-3.781968	-0.443021	3.108176	23.777855	11.070826	-0.287830	0.000000	0.206526	0.012283	0.093964	0.043749
0.737000	-21.351565	643.340271	76.936108	-0.163606	0.000000	-0.200005	0.124170	-3.741349	-0.447422	3.108176	0.000000	8.060380	-0.318247	0.000000	0.204246	0.021423	0.120286	0.055555
0.738000	-21.886080	647.539368	78.705494	-0.164415	0.000000	-0.199096	0.122690	-3.630013	-0.441212	1.327138	0.000000	9.742688	-0.292612	0.000000	0.185883	-0.005224	-0.072844	-0.038349
